<svg xmlns="http://www.w3.org/2000/svg" width="47" height="35" fill="none" viewBox="0 0 47 35"><path fill="#E1C7C6" d="M8.09854 12.5253C8.24947 11.2783 8.69571 10.1245 9.27647 9.02989C10.5211 6.68175 12.3334 4.83984 14.4924 3.32336C14.5055 3.3135 14.5274 3.31788 14.546 3.31459C14.6258 3.48224 14.663 3.6981 14.7921 3.80986C15.3936 4.33033 16.0794 4.46949 16.8209 4.13639C17.5603 3.80438 18.001 3.24008 18.0492 2.41062C18.0929 1.64581 18.0043 1.57787 17.2814 1.77839C17.4137 1.69292 17.5362 1.57458 17.6817 1.52747C19.1669 1.04644 20.6445 0.530358 22.2075 0.342989C22.2621 0.336415 22.3146 0.32217 22.3693 0.315596C24.2297 0.0942596 26.1044 -0.118311 27.9659 0.076728C30.0877 0.29916 32.2379 0.478859 34.2328 1.3642C34.7392 1.58883 35.2544 1.79373 35.7651 2.00739C35.4972 1.90549 35.2292 1.80249 34.9602 1.70169C34.6867 1.59759 34.5161 1.64361 34.4603 1.97671C34.3138 2.85987 34.8256 3.74302 35.6765 4.14406C36.3809 4.47606 37.5249 4.27883 38.0007 3.44608C37.7316 3.22584 37.456 3.00122 37.1815 2.77659C37.4199 2.89822 37.689 2.98369 37.8935 3.14804C39.6095 4.52647 41.2928 5.93776 42.5046 7.81912C43.4386 9.26766 44.1638 10.7984 44.4044 12.5263C43.9308 12.5187 43.4583 12.5055 42.9847 12.5055C37.9908 12.5044 32.9958 12.5022 28.0019 12.5055C21.3664 12.5088 14.7319 12.5187 8.09854 12.5253ZM24.175 6.38153C24.1871 5.24307 23.3285 4.32923 22.2282 4.30842C21.1017 4.2876 20.148 5.19924 20.1316 6.3103C20.1152 7.45534 21.0066 8.35821 22.156 8.3615C23.3099 8.36588 24.163 7.52875 24.175 6.38153ZM28.3246 6.364C28.329 7.51231 29.1755 8.35931 30.3239 8.3626C31.4745 8.36588 32.3757 7.47068 32.3692 6.33112C32.3626 5.21787 31.4154 4.29746 30.2911 4.31061C29.1919 4.32266 28.3202 5.23321 28.3246 6.364ZM26.2717 0.261905C25.7434 0.261905 25.2152 0.252044 24.6869 0.265193C24.2461 0.275054 24.198 0.346276 24.2964 0.75279C24.5075 1.62718 25.33 2.2375 26.2837 2.22873C27.2003 2.21997 27.9932 1.59321 28.213 0.742929C28.3016 0.39668 28.1988 0.26081 27.8565 0.263001C27.3282 0.265193 26.8 0.263001 26.2717 0.261905Z"/><path fill="#E1C7C6" d="M44.4033 26.7609C44.1255 28.3804 43.4288 29.8136 42.4193 31.089C40.9679 32.9211 39.1086 34.1494 36.8238 34.6742C36.1031 34.8397 35.3561 34.9734 34.62 34.9766C29.006 35.0007 23.3908 35.015 17.7768 34.9744C15.5238 34.958 13.4993 34.157 11.7395 32.7512C9.89989 31.2819 8.6979 29.3852 8.14995 27.0841C8.12479 26.9778 8.11604 26.8683 8.09854 26.7609C8.58962 26.7686 9.08179 26.7828 9.57287 26.7828C13.8744 26.785 18.176 26.7872 22.4776 26.7839C29.7858 26.7784 37.094 26.7686 44.4033 26.7609Z"/><path fill="#7C2D1E" d="M8.09855 12.5253C14.733 12.5187 21.3664 12.5088 28.0009 12.5055C32.9948 12.5022 37.9897 12.5044 42.9836 12.5055C43.4572 12.5055 43.9297 12.5187 44.4033 12.5264C44.5509 12.5965 44.6986 12.6666 44.8462 12.7367C45.6873 13.1739 46.3064 13.8127 46.5459 14.7463C46.9287 16.2354 46.3763 17.4374 44.9458 18.314C44.0478 18.7008 43.0996 18.6438 42.1557 18.6438C31.5161 18.6416 20.8775 18.6416 10.2379 18.6449C9.32897 18.6449 8.419 18.6854 7.55825 18.3107C6.67781 17.8099 6.07955 17.1032 5.88378 16.0787C5.72737 15.2602 5.94721 14.5326 6.34642 13.8368C6.78281 13.4698 7.21811 13.1038 7.6545 12.7367H7.65559C7.80324 12.6666 7.9509 12.5954 8.09855 12.5253Z"/><path fill="#7C2D1E" d="M44.4033 26.7609C37.0951 26.7686 29.7869 26.7784 22.4776 26.7839C18.176 26.7872 13.8745 26.785 9.57288 26.7828C9.08181 26.7828 8.58963 26.7686 8.09856 26.7609C7.76716 26.5746 7.4117 26.4212 7.10765 26.1977C5.15975 24.77 5.5327 21.9211 7.6556 20.9514C7.987 20.8341 8.15871 20.9744 8.34574 21.2648C8.97353 22.2356 9.86819 22.7297 11.0494 22.7133C11.7833 22.7034 12.3706 22.3681 12.9623 21.9868C13.1734 22.1085 13.3724 22.2356 13.5813 22.3419C14.7691 22.9434 15.9099 22.8623 16.939 22.0109C17.2781 21.7304 17.487 21.7524 17.825 21.9901C19.3605 23.0683 21.3391 22.9522 22.7718 21.7337C22.9064 21.6198 23.0442 21.5113 23.1842 21.3962C25.2567 23.2053 27.2998 23.1669 29.3199 21.4028C29.4249 21.4806 29.5047 21.5255 29.5682 21.588C30.9605 22.9511 33.2157 23.1275 34.8136 21.8992C35.075 21.6976 35.2511 21.748 35.4753 21.9474C36.008 22.4196 36.6215 22.6837 37.351 22.7155C38.1801 22.7517 38.868 22.4175 39.5253 21.9835C39.6085 22.0329 39.6741 22.0657 39.732 22.1074C41.3125 23.2403 43.3074 22.7396 44.2141 21.1738C44.3913 20.8681 44.5991 20.9163 44.8473 20.9525C46.0406 21.5398 46.6957 22.5095 46.6564 23.8298C46.617 25.1469 45.9137 26.0816 44.6844 26.5955C44.5849 26.636 44.4963 26.705 44.4033 26.7609Z"/><path fill="#E1C7C6" d="M44.8473 20.9514C44.5991 20.9163 44.3913 20.867 44.2141 21.1727C43.3074 22.7385 41.3125 23.2392 39.732 22.1063C39.6741 22.0646 39.6085 22.0318 39.5253 21.9825C38.868 22.4153 38.1801 22.7506 37.351 22.7144C36.6226 22.6826 36.0079 22.4185 35.4753 21.9463C35.2511 21.7469 35.0761 21.6976 34.8136 21.8981C33.2157 23.1264 30.9594 22.95 29.5682 21.5869C29.5047 21.5244 29.4249 21.4795 29.3199 21.4017C27.2998 23.1669 25.2567 23.2042 23.1841 21.3951C23.0442 21.5091 22.9053 21.6176 22.7718 21.7326C21.3391 22.9511 19.3605 23.0672 17.825 21.989C17.487 21.7513 17.2781 21.7293 16.939 22.0098C15.9099 22.8612 14.7691 22.9423 13.5813 22.3408C13.3713 22.2345 13.1734 22.1074 12.9623 21.9857C12.3717 22.367 11.7833 22.7023 11.0494 22.7122C9.86818 22.7286 8.97352 22.2345 8.34573 21.2637C8.15871 20.9733 7.98699 20.8341 7.6556 20.9503C7.76388 20.8363 7.87325 20.7224 7.93231 20.6588C7.93231 19.9696 7.93231 19.3231 7.93231 18.6668C7.81528 18.5539 7.68622 18.4312 7.55826 18.3085C8.41901 18.6832 9.32898 18.6438 10.2379 18.6427C20.8775 18.6394 31.5161 18.6394 42.1557 18.6416C43.0996 18.6416 44.0478 18.6975 44.9458 18.3118C44.8167 18.4334 44.6877 18.5561 44.5695 18.6679C44.5695 19.3242 44.5695 19.9696 44.5695 20.6566C44.6308 20.7224 44.7391 20.8374 44.8473 20.9514Z"/><path fill="#7C2D1E" d="M17.2803 1.77949C18.0021 1.57897 18.0918 1.64691 18.0481 2.41173C17.9999 3.24009 17.5592 3.80439 16.8198 4.13749C16.0794 4.47059 15.3925 4.33143 14.791 3.81097C14.663 3.7003 14.6247 3.48334 14.5449 3.3157C15.4571 2.8029 16.3681 2.2912 17.2803 1.77949Z"/><path fill="#7C2D1E" d="M37.1804 2.77659C37.456 3.00122 37.7306 3.22584 37.9996 3.44608C37.5238 4.27883 36.3798 4.47606 35.6755 4.14406C34.8246 3.74302 34.3127 2.85987 34.4593 1.97672C34.5139 1.64362 34.6857 1.59759 34.9591 1.70169C35.227 1.80359 35.4961 1.90549 35.7641 2.0074C36.2354 2.26379 36.7079 2.52019 37.1804 2.77659Z"/><path fill="#7C2D1E" d="M7.65342 12.7367C7.21703 13.1038 6.78173 13.4698 6.34534 13.8368C6.61767 13.2747 7.01797 12.8649 7.65342 12.7367Z"/><path fill="#7C2D1E" d="M24.1751 6.38152C24.163 7.52875 23.3099 8.36588 22.1571 8.36259C21.0077 8.3593 20.1163 7.45533 20.1327 6.3114C20.148 5.20033 21.1028 4.28869 22.2293 4.30951C23.3285 4.32923 24.1871 5.24416 24.1751 6.38152Z"/><path fill="#7C2D1E" d="M28.3246 6.36399C28.3202 5.23321 29.1908 4.32376 30.2911 4.30951C31.4154 4.29636 32.3626 5.21677 32.3692 6.33003C32.3757 7.47068 31.4745 8.36588 30.3239 8.3615C29.1755 8.35821 28.329 7.51231 28.3246 6.36399Z"/><path fill="#7C2D1E" d="M26.2717 0.261917C26.8 0.261917 27.3282 0.264108 27.8565 0.261917C28.1977 0.259725 28.3016 0.395595 28.213 0.741844C27.9943 1.59322 27.2013 2.21888 26.2837 2.22765C25.33 2.23751 24.5075 1.62719 24.2964 0.751706C24.198 0.345192 24.2461 0.275066 24.6869 0.264108C25.2152 0.252055 25.7434 0.261917 26.2717 0.261917Z"/></svg>